<svg width="52" height="34" viewBox="0 0 52 34" fill="none" xmlns="http://www.w3.org/2000/svg">
<path d="M31.2901 0.808747C31.1008 0.845027 30.9411 0.97013 30.8602 1.14486L29.235 4.39549H6.29305C6.12124 4.39632 5.95777 4.47138 5.84476 4.60108L0.464452 10.5794C0.328092 10.7379 0.284717 10.956 0.349774 11.1545C0.414829 11.353 0.578297 11.5035 0.781807 11.5511L13.4666 14.5774V17.7534C10.0408 18.5637 7.48824 21.65 7.48824 25.3198C7.48824 29.6051 10.9749 33.0918 15.2602 33.0918C19.3412 33.0918 22.684 29.9203 22.9946 25.9178H30.8412C31.1519 29.9203 34.4947 33.0918 38.576 33.0918C42.657 33.0918 45.9998 29.9203 46.3104 25.9178H51.1303C51.4605 25.9178 51.7283 25.6501 51.7283 25.3198V13.3631C51.7283 13.0332 51.4605 12.7655 51.1303 12.7655H48.5335L45.9738 6.78715H48.739C49.0693 6.78715 49.3366 6.51943 49.3366 6.18914V1.40635C49.3391 1.24663 49.277 1.09233 49.1648 0.97849C49.0522 0.864228 48.8992 0.800003 48.739 0.800003C48.5789 0.800003 48.4254 0.864224 48.3133 0.97849C48.2007 1.09233 48.1389 1.24663 48.141 1.40635V5.59152H34.3908C34.1714 5.59319 33.9709 5.71495 33.8679 5.90888L28.0951 16.8567L2.03374 10.6357L6.55466 5.59149H29.6087C29.8389 5.59274 30.0495 5.46222 30.1504 5.25496L31.7756 2.00433H45.1521C45.3123 2.00642 45.4666 1.9447 45.5804 1.8321C45.6943 1.71992 45.7585 1.56646 45.7585 1.40633C45.7585 1.24661 45.6943 1.09315 45.5804 0.98055C45.4666 0.868371 45.3123 0.806238 45.1521 0.808736H31.4019C31.3836 0.807902 31.3648 0.807902 31.346 0.808736C31.3273 0.807902 31.3085 0.807902 31.2902 0.808736L31.2901 0.808747ZM34.7463 6.78711H44.6851L47.5997 13.6062C47.6952 13.8205 47.907 13.9594 48.1414 13.9611H50.533V24.7221H46.3106C46 20.7192 42.6571 17.5482 38.5762 17.5482C34.4949 17.5482 31.1521 20.7192 30.8414 24.7221H22.9948C22.6841 20.7192 19.3413 17.5482 15.2604 17.5482C15.0565 17.5482 14.863 17.5699 14.6628 17.5853V14.8763L28.2818 18.127C28.542 18.1845 28.8084 18.0623 28.9356 17.8284L34.7463 6.78711ZM38.464 8.58072C38.1779 8.63493 37.9732 8.88765 37.9782 9.17831V13.3631C37.9782 13.6933 38.2459 13.9611 38.5762 13.9611H45.1522C45.354 13.9594 45.5413 13.8564 45.6501 13.6871C45.7594 13.5178 45.776 13.3047 45.6939 13.1204L43.9007 8.93561C43.8052 8.72127 43.5934 8.5824 43.3586 8.58073H38.5762C38.5574 8.57948 38.5387 8.57948 38.5199 8.58073C38.5012 8.57948 38.4828 8.57948 38.464 8.58073L38.464 8.58072ZM39.1738 9.77629H42.9665L44.2555 12.7655H39.1737L39.1738 9.77629ZM15.2603 18.7438C18.8992 18.7438 21.8368 21.6809 21.8368 25.3198C21.8368 28.9591 18.8992 31.8962 15.2603 31.8962C11.6214 31.8962 8.68436 28.9591 8.68436 25.3198C8.68436 21.6809 11.6214 18.7438 15.2603 18.7438ZM38.5759 18.7438C42.2148 18.7438 45.1519 21.6809 45.1519 25.3198C45.1519 28.9591 42.2148 31.8962 38.5759 31.8962C34.9366 31.8962 31.9995 28.9591 31.9995 25.3198C31.9995 21.6809 34.9366 18.7438 38.5759 18.7438ZM15.2603 22.3306C13.6165 22.3306 12.2712 23.6763 12.2712 25.3198C12.2712 26.9636 13.6165 28.309 15.2603 28.309C16.9042 28.309 18.2495 26.9636 18.2495 25.3198C18.2495 23.6763 16.9042 22.3306 15.2603 22.3306ZM38.5759 22.3306C36.9321 22.3306 35.5868 23.6763 35.5868 25.3198C35.5868 26.9636 36.9321 28.309 38.5759 28.309C40.2195 28.309 41.5651 26.9636 41.5651 25.3198C41.5651 23.6763 40.2195 22.3306 38.5759 22.3306ZM15.2603 23.5266C16.2579 23.5266 17.054 24.3223 17.054 25.3198C17.054 26.3177 16.2579 27.1134 15.2603 27.1134C14.2628 27.1134 13.4667 26.3178 13.4667 25.3198C13.4667 24.3223 14.2628 23.5266 15.2603 23.5266ZM38.5759 23.5266C39.5735 23.5266 40.3691 24.3223 40.3691 25.3198C40.3691 26.3177 39.5735 27.1134 38.5759 27.1134C37.578 27.1134 36.7823 26.3178 36.7823 25.3198C36.7823 24.3223 37.578 23.5266 38.5759 23.5266Z" fill="white"/>
</svg>
