<svg width="36" height="39" viewBox="0 0 36 39" fill="none" xmlns="http://www.w3.org/2000/svg">
<path d="M0.657948 38.92H35.2335C35.3972 38.92 35.5543 38.855 35.6701 38.7392C35.7859 38.6234 35.8509 38.4663 35.8509 38.3026V14.9994C35.8509 14.8051 35.7594 13.8458 35.604 13.7293L18.3162 0.763428C18.0968 0.598877 17.7947 0.598877 17.5753 0.763428L0.287496 13.7293C0.13204 13.8458 0.0405273 14.5405 0.0405273 14.7348V38.3026C0.0405273 38.4663 0.105577 38.6234 0.221343 38.7392C0.337109 38.855 0.494222 38.92 0.657948 38.92ZM6.21473 17.3103L29.6767 17.6631V19.78H6.21473V17.3103ZM29.6767 17.6631L17.9457 17.4867L6.21473 17.3103V16.0755H29.6767V17.6631ZM17.3283 26.5716H18.5631V27.8064H17.3283V26.5716ZM16.7109 29.0413H19.1806C19.3443 29.0413 19.5014 28.9762 19.6172 28.8605C19.7329 28.7447 19.798 28.5876 19.798 28.4239V26.5716H21.0328V31.511H14.8586V26.5716H16.0935V28.4239C16.0935 28.5876 16.1585 28.7447 16.2743 28.8605C16.39 28.9762 16.5472 29.0413 16.7109 29.0413ZM21.0328 32.7458H22.2677V33.9806H21.0328V32.7458ZM14.2412 32.7458H14.8586V33.9806H13.6238V32.7458H14.2412ZM13.0064 35.2155H15.476C15.6398 35.2155 15.7969 35.1504 15.9126 35.0347C16.0284 34.9189 16.0935 34.7618 16.0935 34.5981V32.7458H17.3283V37.6852H11.1541V32.7458H12.3889V34.5981C12.3889 34.7618 12.454 34.9189 12.5698 35.0347C12.6855 35.1504 12.8426 35.2155 13.0064 35.2155ZM18.5631 37.6852V32.7458H19.798V34.5981C19.798 34.7618 19.863 34.9189 19.9788 35.0347C20.0946 35.1504 20.2517 35.2155 20.4154 35.2155H22.8851C23.0488 35.2155 23.2059 35.1504 23.3217 35.0347C23.4375 34.9189 23.5025 34.7618 23.5025 34.5981V32.7458H24.7373V37.6852H18.5631ZM25.9722 37.6852V32.1284C25.9722 31.9647 25.9071 31.8075 25.7914 31.6918C25.6756 31.576 25.5185 31.511 25.3548 31.511H22.2677V25.9542C22.2677 25.7905 22.2026 25.6333 22.0869 25.5176C21.9711 25.4018 21.814 25.3368 21.6502 25.3368H14.2412C13.9002 25.3368 13.6238 25.6132 13.6238 25.9542V31.511H10.5367C10.1957 31.511 9.91926 31.7874 9.91926 32.1284V37.6852H6.21473V21.0148H29.6767V37.6852H25.9722ZM1.27537 14.5323L17.9457 2.02932L34.6161 14.5323V37.6852H30.9116V15.458C30.9116 15.2943 30.8465 15.1372 30.7307 15.0214C30.615 14.9057 30.4579 14.8406 30.2941 14.8406H5.59731C5.25635 14.8406 4.97989 15.1171 4.97989 15.458V37.6852H1.27537V14.5323Z" fill="white"/>
</svg>
