<svg width="38" height="40" viewBox="0 0 38 40" fill="none" xmlns="http://www.w3.org/2000/svg">
<path d="M31.0779 16.3686C31.3037 16.6479 31.5357 16.9391 31.7674 17.2422C31.8506 17.3552 32.5294 18.4223 32.6602 18.4223C33.4534 19.57 33.6334 18.8319 33.7109 18.7725C33.901 18.6299 32.6055 16.9095 32.4569 16.7134C32.2192 16.3984 30.9247 14.8552 30.699 14.5699C30.5504 14.3797 29.2721 12.9854 29.088 13.134C28.8972 13.2886 29.7884 15.0252 31.0779 16.3686Z" fill="white"/>
<path d="M33.3911 17.9567C33.2543 17.7605 32.9809 17.7129 32.7848 17.8497C32.5886 17.9865 32.541 18.2599 32.6778 18.4561C35.0076 21.796 37.5926 26.8837 36.6657 32.1195C36.6539 32.1728 36.6596 32.2325 36.6657 32.2798C36.6717 32.3036 36.7726 32.9157 36.1663 33.6408C35.2273 34.7699 32.6835 36.1131 25.9322 36.1131H25.837H19.3591C18.4201 36.1131 17.5464 36.0833 16.7084 36.0299C16.7201 35.9528 16.7382 35.8813 16.7382 35.8042C16.7382 35.4356 16.5896 34.9305 16.0071 34.4135C16.4706 34.0094 16.7382 33.5398 16.7382 33.011C16.7382 32.6424 16.5896 32.1373 16.0071 31.6203C16.4706 31.2161 16.7382 30.7466 16.7382 30.2178C16.7382 29.8492 16.5896 29.3441 16.0071 28.8271C16.4706 28.4229 16.7382 27.9534 16.7382 27.4246C16.7382 27.062 16.5896 26.5509 16.0013 26.0339C16.4648 25.6297 16.7382 25.1602 16.7382 24.6314C16.7382 22.8959 13.8735 21.8263 10.6523 21.5054C12.9405 17.167 16.2328 13.9575 16.8985 13.3334H28.3093C28.5766 13.5829 29.2601 14.2426 30.122 15.2114C30.2823 15.3898 30.5559 15.4076 30.7401 15.247C30.9185 15.0867 30.9363 14.813 30.7756 14.6289C30.2763 14.0702 29.8484 13.6185 29.5097 13.2797C30.5497 13.0597 31.3341 12.1388 31.3341 11.0331V10.5043C31.3341 9.23829 30.3059 8.21607 29.0402 8.21607H27.5662L28.7253 6.07071C30.1636 3.53898 29.1411 1.79174 29.1176 1.75013C28.9335 1.36982 28.6125 1.12603 28.1964 1.03681C26.5977 0.686044 23.5666 2.93863 22.6038 3.69931C21.6292 2.92666 18.628 0.692054 17.0113 1.03681C16.5954 1.126 16.2744 1.37553 16.09 1.75013C15.9831 1.9641 16.0723 2.22567 16.2862 2.33264C16.5002 2.43962 16.7618 2.35043 16.8687 2.13647C16.9401 1.99391 17.0351 1.9225 17.1897 1.88694C18.2595 1.66121 20.9042 3.42629 22.3245 4.59097C22.4848 4.72777 22.7404 4.70397 22.901 4.57319C24.3095 3.41417 26.9422 1.65517 28.0063 1.88085C28.1666 1.91642 28.2618 1.98783 28.351 2.16622C28.3513 2.18401 29.1535 3.55098 27.9589 5.65503L26.5682 8.22255L18.6169 8.22227L17.2201 5.64298C17.0954 5.41725 16.9824 5.19126 16.8932 4.97155C16.804 4.75157 16.5484 4.63885 16.3284 4.73379C16.1085 4.82298 15.9957 5.07854 16.0907 5.29852C16.1976 5.55406 16.3224 5.81563 16.465 6.06514L17.6297 8.21654H16.1618C14.9019 8.21654 13.8736 9.24478 13.8736 10.5047V11.0336C13.8736 12.139 14.6581 13.0663 15.6981 13.2802C14.4025 14.5817 11.6804 17.5592 9.71346 21.434C9.35695 21.4162 8.99439 21.4041 8.63766 21.4041C4.70345 21.4041 0.525203 22.5333 0.525203 24.6313C0.525203 25.1602 0.798534 25.6297 1.26206 26.0338C0.673807 26.5509 0.525203 27.0621 0.525203 27.4245C0.525203 27.9534 0.792517 28.4229 1.25632 28.827C0.662587 29.3436 0.52002 29.8547 0.52002 30.2233C0.52002 30.7522 0.787334 31.2217 1.25114 31.6258C0.662607 32.1369 0.52002 32.648 0.52002 33.0105C0.52002 33.5394 0.787334 34.0089 1.25114 34.413C0.662607 34.9301 0.52002 35.4355 0.52002 35.8037C0.52002 37.8957 4.69798 39.0249 8.62617 39.0249C11.8175 39.0249 15.1695 38.2821 16.3163 36.8853C17.2492 36.9507 18.2657 36.9862 19.3533 36.9862H25.8312H25.9264C33.0821 36.9862 35.8278 35.4469 36.868 34.1574C37.5692 33.2897 37.5574 32.4815 37.5276 32.2022C38.4781 26.6931 35.8036 21.4155 33.3909 17.9567L33.3911 17.9567ZM14.7356 11.0391V10.5102C14.7356 9.72577 15.3715 9.08991 16.1559 9.08991H29.0285C29.813 9.08991 30.4548 9.72577 30.4548 10.5102V11.0391C30.4548 11.8235 29.813 12.4654 29.0285 12.4654H16.1559C15.3775 12.4654 14.7356 11.8235 14.7356 11.0391ZM8.62594 22.2776C9.08369 22.2776 9.52334 22.2954 9.95733 22.3252C13.4103 22.5569 15.8588 23.6445 15.8588 24.6372C15.8588 25.7486 12.7684 26.9908 8.62608 26.9908C4.48377 26.9908 1.38777 25.7486 1.38777 24.6372C1.38777 23.5255 4.48419 22.2776 8.62608 22.2776L8.62594 22.2776ZM8.62594 27.8581C11.1043 27.8581 13.6836 27.4064 15.2465 26.5448C15.5614 26.7765 15.8645 27.0857 15.8645 27.4245C15.8645 28.5358 12.7681 29.7781 8.62624 29.7781C4.48378 29.7781 1.39353 28.5359 1.39353 27.4245C1.39353 27.0857 1.69067 26.7766 2.00559 26.5448C3.56896 27.4064 6.14832 27.8581 8.62633 27.8581H8.62594ZM8.62594 30.6574C11.11 30.6574 13.6893 30.2057 15.2584 29.3441C15.5734 29.5698 15.8648 29.879 15.8648 30.2237C15.8648 31.3351 12.7683 32.5774 8.62645 32.5774C4.48399 32.5774 1.39374 31.3352 1.39374 30.2237C1.39374 29.879 1.69088 29.5701 2.00005 29.3441C3.56286 30.2057 6.14222 30.6574 8.62632 30.6574H8.62594ZM8.62594 33.4507C11.11 33.4507 13.6893 32.9989 15.2584 32.1373C15.5734 32.3631 15.8648 32.6722 15.8648 33.017C15.8648 34.1284 12.7683 35.3706 8.62645 35.3706C4.48399 35.3706 1.39374 34.1285 1.39374 33.017C1.39374 32.6723 1.69088 32.3634 2.00005 32.1373C3.56286 32.9929 6.14222 33.4507 8.62632 33.4507H8.62594ZM8.62594 38.1515C4.48349 38.1515 1.39323 36.9093 1.39323 35.8039C1.39323 35.4592 1.69037 35.1503 1.99955 34.9242C3.56264 35.7861 6.142 36.2376 8.62603 36.2376C11.1101 36.2376 13.6954 35.7858 15.2585 34.9242C15.5735 35.15 15.8648 35.4591 15.8648 35.8039C15.8648 35.9169 15.8233 36.0357 15.7579 36.1547C15.728 36.1903 15.7045 36.2261 15.6865 36.2734C14.9792 37.2362 12.1919 38.1514 8.62605 38.1514L8.62594 38.1515Z" fill="white"/>
<path d="M33.4745 17.9505C33.3368 17.753 33.0618 17.7051 32.8644 17.8428C32.667 17.9805 32.6191 18.2557 32.7568 18.4532C35.101 21.8155 37.702 26.9374 36.7693 32.2083C36.7575 32.262 36.7633 32.322 36.7693 32.3697C36.7754 32.3936 36.877 33.0098 36.2669 33.7398C35.3221 34.8765 32.7626 36.2287 25.9695 36.2287H25.8736H19.3556C18.4108 36.2287 17.5317 36.1986 16.6885 36.1449C16.7003 36.0673 16.7185 35.9954 16.7185 35.9177C16.7185 35.5467 16.569 35.0382 15.9828 34.5176C16.4492 34.1108 16.7185 33.6381 16.7185 33.1057C16.7185 32.7347 16.569 32.2262 15.9828 31.7057C16.4492 31.2989 16.7185 30.8262 16.7185 30.2938C16.7185 29.9228 16.569 29.4143 15.9828 28.8938C16.4492 28.4869 16.7185 28.0142 16.7185 27.4819C16.7185 27.1169 16.569 26.6024 15.9771 26.0818C16.4434 25.675 16.7185 25.2023 16.7185 24.6699C16.7185 22.9228 13.8361 21.8461 10.5949 21.523C12.8973 17.1555 16.21 13.9244 16.8798 13.2962H28.3613C28.6302 13.5474 29.3179 14.2114 30.1852 15.1868C30.3465 15.3664 30.6218 15.3843 30.8071 15.2226C30.9866 15.0612 31.0045 14.7857 30.8428 14.6003C30.3404 14.0379 29.9099 13.5831 29.569 13.2421C30.6155 13.0207 31.4048 12.0935 31.4048 10.9805V10.448C31.4048 9.17357 30.3702 8.14449 29.0966 8.14449H27.6136L28.7798 5.98473C30.227 3.43602 29.1982 1.67706 29.1746 1.63517C28.9893 1.2523 28.6663 1.00688 28.2476 0.917061C26.6391 0.563943 23.5892 2.83165 22.6204 3.59742C21.6398 2.81959 18.62 0.569993 16.9932 0.917061C16.5748 1.00685 16.2518 1.25806 16.0663 1.63517C15.9587 1.85057 16.0484 2.1139 16.2637 2.22159C16.479 2.32929 16.7422 2.23949 16.8498 2.0241C16.9217 1.88059 17.0172 1.8087 17.1728 1.77289C18.2492 1.54565 20.9103 3.32257 22.3394 4.49507C22.5007 4.63279 22.7579 4.60883 22.9195 4.47716C24.3367 3.31038 26.9856 1.53957 28.0563 1.76676C28.2177 1.80257 28.3135 1.87446 28.4032 2.05405C28.4035 2.07195 29.2107 3.4481 28.0087 5.56626L26.6094 8.15101L18.6088 8.15073L17.2034 5.55414C17.0779 5.32689 16.9642 5.09938 16.8744 4.8782C16.7847 4.65675 16.5275 4.54326 16.3062 4.63884C16.0849 4.72864 15.9714 4.98591 16.067 5.20736C16.1746 5.46462 16.3001 5.72795 16.4436 5.97913L17.6155 8.14496H16.1385C14.8708 8.14496 13.8362 9.1801 13.8362 10.4485V10.9809C13.8362 12.0937 14.6255 13.0272 15.6719 13.2426C14.3684 14.5529 11.6294 17.5503 9.65026 21.4511C9.29155 21.4332 8.92674 21.421 8.5678 21.421C4.60923 21.421 0.405117 22.5578 0.405117 24.6699C0.405117 25.2023 0.680141 25.675 1.14654 26.0818C0.554642 26.6024 0.405117 27.1169 0.405117 27.4818C0.405117 28.0143 0.674087 28.4869 1.14076 28.8937C0.543352 29.4138 0.399902 29.9283 0.399902 30.2993C0.399902 30.8318 0.668872 31.3044 1.13554 31.7112C0.543373 32.2258 0.399902 32.7403 0.399902 33.1053C0.399902 33.6377 0.668872 34.1104 1.13554 34.5172C0.543373 35.0378 0.399902 35.5465 0.399902 35.9172C0.399902 38.0233 4.60373 39.16 8.55624 39.16C11.7673 39.16 15.1401 38.4122 16.294 37.006C17.2327 37.0719 18.2555 37.1077 19.3498 37.1077H25.8678H25.9636C33.1636 37.1077 35.9263 35.558 36.9729 34.2598C37.6785 33.3864 37.6666 32.5727 37.6366 32.2915C38.593 26.7455 35.902 21.4324 33.4743 17.9505L33.4745 17.9505ZM14.7035 10.9864V10.454C14.7035 9.66431 15.3433 9.02419 16.1326 9.02419H29.0849C29.8742 9.02419 30.5201 9.66432 30.5201 10.454V10.9864C30.5201 11.7761 29.8742 12.4223 29.0849 12.4223H16.1326C15.3494 12.4223 14.7035 11.7761 14.7035 10.9864ZM8.55601 22.3003C9.0166 22.3003 9.45897 22.3182 9.89565 22.3483C13.37 22.5816 15.8336 23.6765 15.8336 24.6758C15.8336 25.7946 12.7241 27.0452 8.55615 27.0452C4.38819 27.0452 1.27303 25.7947 1.27303 24.6758C1.27303 23.5567 4.38862 22.3003 8.55615 22.3003L8.55601 22.3003ZM8.55601 27.9183C11.0497 27.9183 13.645 27.4635 15.2175 26.5962C15.5344 26.8295 15.8394 27.1407 15.8394 27.4817C15.8394 28.6006 12.7238 29.8511 8.55631 29.8511C4.38821 29.8511 1.27882 28.6007 1.27882 27.4817C1.27882 27.1407 1.5778 26.8295 1.89467 26.5962C3.46772 27.4635 6.06305 27.9183 8.5564 27.9183H8.55601ZM8.55601 30.7364C11.0555 30.7364 13.6507 30.2816 15.2296 29.4142C15.5465 29.6415 15.8396 29.9527 15.8396 30.2998C15.8396 31.4187 12.7241 32.6692 8.55652 32.6692C4.38842 32.6692 1.27903 31.4187 1.27903 30.2998C1.27903 29.9528 1.57801 29.6418 1.8891 29.4142C3.46159 30.2816 6.05691 30.7364 8.55639 30.7364H8.55601ZM8.55601 33.5484C11.0555 33.5484 13.6507 33.0936 15.2296 32.2262C15.5465 32.4535 15.8396 32.7647 15.8396 33.1118C15.8396 34.2307 12.7241 35.4812 8.55652 35.4812C4.38842 35.4812 1.27903 34.2307 1.27903 33.1118C1.27903 32.7648 1.57801 32.4538 1.8891 32.2262C3.46159 33.0876 6.05691 33.5484 8.55639 33.5484H8.55601ZM8.55601 38.2808C4.38791 38.2808 1.27852 37.0303 1.27852 35.9174C1.27852 35.5704 1.5775 35.2594 1.88859 35.0318C3.46136 35.8995 6.05669 36.354 8.5561 36.354C11.0555 36.354 13.6569 35.8992 15.2297 35.0318C15.5465 35.2591 15.8397 35.5703 15.8397 35.9174C15.8397 36.0312 15.7979 36.1507 15.7321 36.2705C15.7021 36.3063 15.6784 36.3424 15.6602 36.3901C14.9486 37.3594 12.1441 38.2807 8.55613 38.2807L8.55601 38.2808Z" fill="white"/>
<path d="M16.0598 5.28911C16.0776 5.28911 17.0996 6.42047 16.7253 5.25409C16.963 5.22427 16.5171 4.01329 16.4873 3.77553C16.4574 3.54378 16.4755 2.89422 16.4873 2.66248C16.5852 2.20719 17.1805 1.40169 16.2349 1.57679C15.8497 1.26159 15.6136 2.78315 15.5959 3.02091C15.5781 3.30629 15.5841 3.59741 15.6257 3.88854C15.6495 4.10825 15.8401 5.28911 16.0598 5.28911Z" fill="white"/>
<path d="M24.0413 29.8359V28.9264C24.8972 28.8848 25.5925 28.6293 26.1095 28.1716C26.6324 27.7081 26.8939 27.1078 26.8939 26.3707C26.8939 25.6338 26.6682 25.0752 26.2105 24.6828C25.7527 24.2964 25.0457 23.9875 24.0769 23.7616H24.0413V21.3902C24.6892 21.4855 25.2892 21.729 25.8479 22.1214L26.6682 20.9623C25.8422 20.3976 24.9685 20.0827 24.0413 20.0173V19.3754H23.2331V20.0053C22.4188 20.0469 21.7531 20.3024 21.248 20.7601C20.7369 21.2236 20.4814 21.8179 20.4814 22.549C20.4814 23.2741 20.7014 23.8267 21.1471 24.1953C21.5868 24.5638 22.2823 24.8667 23.2331 25.0927V27.5412C22.4842 27.4224 21.7591 27.0539 21.0518 26.4419L20.1306 27.5412C21.0458 28.3377 22.0801 28.8011 23.2328 28.9199V29.8411L24.0413 29.8417L24.0413 29.8359ZM24.0413 25.3071C24.5464 25.4557 24.8912 25.6221 25.0753 25.7944C25.2595 25.9668 25.3547 26.1986 25.3547 26.4957C25.3547 26.7868 25.2359 27.0366 25.0039 27.2268C24.7662 27.423 24.4512 27.536 24.0471 27.5833V25.3072L24.0413 25.3071ZM22.2703 23.0666C22.1039 22.9002 22.0208 22.6803 22.0208 22.3952C22.0208 22.1158 22.1277 21.878 22.3417 21.6879C22.5557 21.4977 22.8528 21.3847 23.2331 21.3552V23.5364C22.7576 23.3875 22.4367 23.2272 22.2703 23.0666L22.2703 23.0666Z" fill="white"/>
<path d="M7.41844 25.0996L7.0083 25.4503C7.41844 25.7059 7.87019 25.8545 8.3813 25.89V26.1811H8.7378V25.8958C9.1121 25.878 9.41526 25.8005 9.65299 25.652C9.87872 25.5034 9.99774 25.3133 9.99774 25.0815C9.99774 24.8437 9.89678 24.6656 9.69459 24.5406C9.49841 24.4158 9.18348 24.3206 8.75558 24.2495H8.7378V23.4889C9.02317 23.5187 9.29048 23.5958 9.53426 23.7206L9.89679 23.3521C9.53426 23.1737 9.14796 23.0727 8.74381 23.0549V22.847H8.3873V23.0492C8.02477 23.067 7.73365 23.1444 7.51364 23.293C7.28791 23.4415 7.18094 23.6257 7.18094 23.8634C7.18094 24.0952 7.27615 24.2736 7.47205 24.3863C7.66823 24.4993 7.97713 24.6003 8.39327 24.6717V25.4561C8.05454 25.4145 7.73359 25.2957 7.4184 25.0996H7.41844ZM8.73778 24.7431C8.95776 24.7907 9.10633 24.8383 9.18951 24.8977C9.27269 24.951 9.31427 25.0284 9.31427 25.1176C9.31427 25.2128 9.26092 25.29 9.15968 25.3494C9.05872 25.4087 8.91015 25.4503 8.73778 25.4624V24.7431ZM7.95939 24.0237C7.88223 23.9643 7.84639 23.899 7.84639 23.8098C7.84639 23.7206 7.89399 23.6434 7.98894 23.5898C8.08416 23.5304 8.20892 23.4946 8.3813 23.4828V24.178C8.17937 24.1307 8.0308 24.0774 7.9594 24.0237L7.95939 24.0237Z" fill="white"/>
</svg>
