<svg width="41" height="37" viewBox="0 0 41 37" fill="none" xmlns="http://www.w3.org/2000/svg">
<path d="M3.27803 1.48741C2.60025 1.48741 2.41761 1.52273 2.2323 1.62183C2.10686 1.68888 2.01615 1.77929 1.94909 1.90473C1.85 2.09004 1.81468 2.27295 1.81468 2.95069V33.9287C1.81468 34.6065 1.85 34.7892 1.94909 34.9747C2.01615 35.0998 2.10686 35.1905 2.2323 35.2576C2.41761 35.3567 2.60022 35.392 3.27803 35.392H26.9601C27.6379 35.392 27.8207 35.3567 28.0061 35.2576C28.1315 35.1905 28.2219 35.0998 28.289 34.9747C28.3881 34.7891 28.4234 34.6065 28.4234 33.9287V2.95069C28.4234 2.27292 28.3881 2.09004 28.289 1.90473C28.2219 1.77929 28.1315 1.68888 28.0061 1.62183C27.8207 1.52273 27.6378 1.48741 26.9601 1.48741H3.27803ZM29.7114 13.161L28.4238 14.4483V22.3329L29.7114 21.0453V33.9289C29.7114 34.8854 29.612 35.2324 29.4249 35.582C29.2378 35.9317 28.9633 36.2062 28.6136 36.393C28.264 36.5801 27.917 36.6798 26.9605 36.6798H3.27847C2.32202 36.6798 1.97531 36.5801 1.62537 36.393C1.27571 36.2062 1.00149 35.9317 0.814385 35.582C0.627279 35.2324 0.527588 34.8854 0.527588 33.9289V2.9509C0.527588 1.99445 0.627279 1.64743 0.814385 1.29781C1.00149 0.94818 1.27571 0.673623 1.62537 0.48651C1.97534 0.299405 2.322 0.200012 3.27847 0.200012H26.9605C27.917 0.200012 28.264 0.299405 28.6136 0.48651C28.9633 0.673615 29.2378 0.948134 29.4249 1.29781C29.612 1.64747 29.7114 1.99443 29.7114 2.9509V13.161Z" fill="white"/>
<path d="M6.53598 8.69045L5.76867 9.11286C5.66479 9.17004 5.53427 9.13232 5.47709 9.02844C5.45403 8.98652 5.44565 8.93773 5.45344 8.89042L5.60222 7.98004L4.96187 7.32622C4.87894 7.24179 4.88044 7.10588 4.96516 7.02296C4.99719 6.99153 5.03851 6.97087 5.08312 6.96399L5.95909 6.83076L6.34169 6.01824C6.39228 5.91107 6.52011 5.86497 6.62729 5.91556C6.6725 5.93682 6.70872 5.97304 6.72997 6.01824L7.11286 6.83076L7.98884 6.96399C8.10589 6.98195 8.18643 7.09122 8.16877 7.20857C8.16188 7.25288 8.14123 7.29419 8.10979 7.32622L7.46944 7.98004L7.61852 8.89043C7.63768 9.00718 7.55835 9.11765 7.4413 9.13681C7.394 9.14459 7.3455 9.13621 7.30329 9.11286L6.53598 8.69045Z" fill="white"/>
<path d="M10.8277 8.69045L10.0604 9.11286C9.95654 9.17004 9.82601 9.13232 9.76883 9.02844C9.74578 8.98652 9.7374 8.93773 9.74518 8.89042L9.89397 7.98004L9.25362 7.32622C9.17069 7.24179 9.17219 7.10588 9.25691 7.02296C9.28894 6.99153 9.33025 6.97087 9.37486 6.96399L10.2508 6.83076L10.6334 6.01824C10.684 5.91107 10.8119 5.86497 10.919 5.91556C10.9642 5.93682 11.0005 5.97304 11.0217 6.01824L11.4046 6.83076L12.2806 6.96399C12.3976 6.98195 12.4782 7.09122 12.4605 7.20857C12.4536 7.25288 12.433 7.29419 12.4015 7.32622L11.7612 7.98004L11.9103 8.89043C11.9294 9.00718 11.8501 9.11765 11.733 9.13681C11.6857 9.14459 11.6372 9.13621 11.595 9.11286L10.8277 8.69045Z" fill="white"/>
<path d="M15.1195 8.69045L14.3522 9.11286C14.2483 9.17004 14.1178 9.13232 14.0606 9.02844C14.0375 8.98652 14.0291 8.93773 14.0369 8.89042L14.1857 7.98004L13.5454 7.32622C13.4624 7.24179 13.4639 7.10588 13.5487 7.02296C13.5807 6.99153 13.622 6.97087 13.6666 6.96399L14.5426 6.83076L14.9252 6.01824C14.9758 5.91107 15.1036 5.86497 15.2108 5.91556C15.256 5.93682 15.2922 5.97304 15.3135 6.01824L15.6964 6.83076L16.5723 6.96399C16.6894 6.98195 16.7699 7.09122 16.7523 7.20857C16.7454 7.25288 16.7247 7.29419 16.6933 7.32622L16.0529 7.98004L16.202 8.89043C16.2212 9.00718 16.1418 9.11765 16.0248 9.13681C15.9775 9.14459 15.929 9.13621 15.8868 9.11286L15.1195 8.69045Z" fill="white"/>
<path d="M19.4112 8.69045L18.6439 9.11286C18.54 9.17004 18.4095 9.13232 18.3523 9.02844C18.3293 8.98652 18.3209 8.93773 18.3287 8.89042L18.4775 7.98004L17.8371 7.32622C17.7542 7.24179 17.7557 7.10588 17.8404 7.02296C17.8724 6.99153 17.9137 6.97087 17.9584 6.96399L18.8343 6.83076L19.2169 6.01824C19.2675 5.91107 19.3954 5.86497 19.5025 5.91556C19.5477 5.93682 19.584 5.97304 19.6052 6.01824L19.9881 6.83076L20.8641 6.96399C20.9811 6.98195 21.0617 7.09122 21.044 7.20857C21.0371 7.25288 21.0165 7.29419 20.985 7.32622L20.3447 7.98004L20.4938 8.89043C20.5129 9.00718 20.4336 9.11765 20.3165 9.13681C20.2692 9.14459 20.2207 9.13621 20.1785 9.11286L19.4112 8.69045Z" fill="white"/>
<path d="M23.703 8.69045L22.9357 9.11286C22.8318 9.17004 22.7013 9.13232 22.6441 9.02844C22.621 8.98652 22.6126 8.93773 22.6204 8.89042L22.7692 7.98004L22.1289 7.32622C22.0459 7.24179 22.0474 7.10588 22.1322 7.02296C22.1642 6.99153 22.2055 6.97087 22.2501 6.96399L23.1261 6.83076L23.5087 6.01824C23.5593 5.91107 23.6871 5.86497 23.7943 5.91556C23.8395 5.93682 23.8757 5.97304 23.897 6.01824L24.2799 6.83076L25.1558 6.96399C25.2729 6.98195 25.3534 7.09122 25.3358 7.20857C25.3289 7.25288 25.3082 7.29419 25.2768 7.32622L24.6364 7.98004L24.7855 8.89043C24.8047 9.00718 24.7253 9.11765 24.6083 9.13681C24.561 9.14459 24.5125 9.13621 24.4703 9.11286L23.703 8.69045Z" fill="white"/>
<path d="M4.79419 13.894H24.9985V14.792H4.79419V13.894Z" fill="white"/>
<path d="M4.79419 18.6084H18.6005V19.5064H4.79419V18.6084Z" fill="white"/>
<path d="M4.79419 23.3228H14.2229V24.2207H4.79419V23.3228Z" fill="white"/>
<path d="M4.79419 28.037H11.6412V28.935H4.79419V28.037Z" fill="white"/>
<path d="M23.903 25.9947L38.6789 11.2188L35.6439 8.18411L20.868 22.96L19.5597 27.303L23.903 25.9947ZM24.6119 27.1066L19.2029 28.746C18.7727 28.8765 18.2944 28.6256 18.1347 28.1856C18.0722 28.0131 18.0659 27.829 18.1171 27.6605L19.7564 22.2512L35.0765 6.93114C35.3899 6.61771 35.9156 6.63536 36.2509 6.97066L39.8924 10.6122C40.2277 10.9475 40.2454 11.4732 39.932 11.7866L24.6119 27.1066Z" fill="white"/>
</svg>
