<svg width="32" height="39" viewBox="0 0 32 39" fill="none" xmlns="http://www.w3.org/2000/svg">
<path d="M4.39685 16.1871H6.90663L6.88949 16.0197C6.86909 15.801 6.85576 15.588 6.84977 15.3807L4.39654 16.1868L4.39685 16.1871ZM28.0544 26.128C28.8134 26.128 29.4294 26.744 29.4294 27.503C29.4294 28.262 28.8134 28.8777 28.0544 28.8777C27.2953 28.8777 26.6797 28.2623 26.6797 27.503C26.6797 26.744 27.2951 26.128 28.0544 26.128ZM30.7503 24.8496H25.3596V30.1565H30.7503V24.8496ZM24.7744 23.6794H30.7503V20.2544C30.7503 18.6623 29.4458 17.3571 27.8536 17.3571H4.22739C2.63474 17.3571 1.33015 18.6617 1.33015 20.2544V34.7518C1.33015 36.3439 2.63578 37.6479 4.22739 37.6479H27.8536C29.4452 37.6479 30.7503 36.3434 30.7503 34.7518V31.3267H24.7744C24.4514 31.3267 24.1894 31.0647 24.1894 30.7418V24.2647C24.1894 23.9418 24.4514 23.6798 24.7744 23.6798V23.6794ZM31.9203 34.7515C31.9203 36.9895 30.0909 38.8178 27.8534 38.8178H4.22725C1.98923 38.8178 0.159912 36.9898 0.159912 34.7515V20.2541C0.159912 18.1355 1.69678 15.8445 3.70767 15.1845L6.90197 14.1346C7.33863 10.1303 10.3433 6.86396 14.2812 6.07832C15.7792 2.77029 19.0745 0.640015 22.708 0.640015C27.8163 0.640015 31.9581 4.78139 31.9581 9.89005C31.9581 12.3509 30.9832 14.6964 29.2442 16.4329C30.841 17.0162 31.9208 18.546 31.9208 20.254V34.7514L31.9203 34.7515ZM15.5111 8.77672C15.5111 8.00731 16.6813 8.00731 16.6813 8.77672V9.5363C20.7946 10.0753 20.9407 15.137 16.6813 15.6959V16.1864H24.1114C24.1505 15.8349 24.1758 15.5046 24.1758 15.149C24.1758 10.6836 20.562 7.06907 16.0966 7.06907C11.6337 7.06907 8.01668 10.6845 8.01668 15.149C8.01668 15.42 8.0281 15.6738 8.05041 15.9097L8.08116 16.1867H12.804C13.402 15.2755 14.4491 14.7401 15.5113 14.6019V10.7184C14.5724 10.8828 13.5151 11.5572 13.5151 12.6169C13.5151 13.3863 12.345 13.3863 12.345 12.6169C12.345 10.8893 13.9279 9.74418 15.5113 9.53635L15.5111 8.77672ZM16.6813 10.7184V14.514C19.388 14.0395 19.2555 11.1703 16.6813 10.7184ZM15.5111 16.1867V15.7849C15.1375 15.8502 14.7684 15.9824 14.4478 16.1867H15.5111ZM27.772 16.1867C29.686 14.6466 30.7876 12.347 30.7876 9.88977C30.7876 5.42766 27.17 1.80983 22.7077 1.80983C19.7857 1.80983 17.1115 3.37149 15.6732 5.90879C15.8135 5.90226 15.9548 5.899 16.0965 5.899C21.2018 5.899 25.3458 10.0442 25.3458 15.149C25.3458 15.4992 25.3211 15.8401 25.2854 16.1865H27.7721L27.772 16.1867Z" fill="white"/>
</svg>
