<svg width="40" height="40" viewBox="0 0 40 40" fill="none" xmlns="http://www.w3.org/2000/svg">
<path d="M21.2484 6.16414C21.0806 5.99666 20.8491 5.90903 20.6127 5.92322L14.8255 6.23481C14.2808 4.10262 12.7737 2.34634 10.749 1.48451C8.72449 0.62239 6.41376 0.753363 4.49944 1.83866C2.58511 2.92391 1.2862 4.83937 0.986012 7.01935C0.68582 9.19932 1.41889 11.3944 2.96849 12.9567C3.87569 13.8667 5.01521 14.5108 6.26298 14.8179L5.9514 20.5968C5.93888 20.8299 6.02484 21.0575 6.18843 21.2241L23.8033 38.8347C23.9585 38.9908 24.1691 39.079 24.3892 39.0798C24.6123 39.0845 24.8279 38.9991 24.9873 38.843L38.8674 24.963C39.0265 24.805 39.115 24.5891 39.1124 24.3649C39.1116 24.1448 39.0234 23.9342 38.8674 23.779L21.2484 6.16414ZM4.14062 11.781C2.77127 10.4117 2.23662 8.41591 2.73765 6.54553C3.23898 4.67515 4.69983 3.21435 6.57014 2.71304C8.44052 2.21199 10.4363 2.7467 11.8057 4.116C12.4241 4.73249 12.882 5.4914 13.1391 6.32603L9.17587 6.54219C8.50039 6.59199 7.86556 6.883 7.38647 7.36179C6.90768 7.84086 6.61665 8.47574 6.56687 9.15119L6.3507 13.1228C5.5155 12.8625 4.75687 12.4017 4.14067 11.7811L4.14062 11.781ZM24.3899 37.0819L7.62612 20.3182L8.22426 9.24206V9.24178C8.25291 8.97526 8.37226 8.72627 8.56172 8.53654C8.75145 8.34708 9.00045 8.22773 9.26696 8.19908L13.3882 7.97902C13.386 9.40591 12.8165 10.7735 11.8055 11.7804C11.4809 12.105 11.4809 12.6314 11.8055 12.9561C12.1302 13.2807 12.6565 13.2807 12.9812 12.9561C14.3271 11.6149 15.0761 9.78765 15.0583 7.8875L20.3511 7.60096L37.1063 24.3647L24.3899 37.0819Z" fill="white"/>
<path d="M13.7039 18.7314C13.128 19.307 12.8044 20.0882 12.8044 20.9022C12.8044 21.7165 13.1277 22.4976 13.7036 23.0732C14.2795 23.6491 15.0604 23.9727 15.8747 23.9727C16.6889 23.9727 17.4699 23.6491 18.0455 23.0732C18.6213 22.4976 18.9449 21.7164 18.9446 20.9022C18.9446 20.0881 18.6211 19.307 18.0452 18.7314C17.469 18.1569 16.6884 17.8342 15.8746 17.8342C15.0606 17.8342 14.2802 18.1569 13.7038 18.7314H13.7039ZM16.8695 21.897C16.6055 22.1616 16.2475 22.3102 15.8736 22.3105C15.5 22.3107 15.1417 22.1624 14.8774 21.8982C14.6131 21.6341 14.4645 21.2758 14.4645 20.9022C14.4645 20.5286 14.6131 20.17 14.8774 19.906C15.1417 19.6417 15.5 19.4934 15.8736 19.4937C16.2475 19.494 16.6055 19.6428 16.8695 19.9071C17.1308 20.1708 17.2771 20.5269 17.2771 20.8981C17.2771 21.2692 17.1308 21.625 16.8695 21.8887V21.897Z" fill="white"/>
<path d="M25.9595 23.9618C26.9143 23.9621 27.8146 23.5181 28.3957 22.7606C28.9769 22.0033 29.1727 21.0184 28.9254 20.0965C28.6781 19.1746 28.0159 18.4198 27.1338 18.0548C26.2519 17.6898 25.2501 17.756 24.4235 18.2337C23.597 18.7113 23.0397 19.5465 22.9159 20.493C22.7919 21.4397 23.1154 22.3901 23.7909 23.0644C24.3657 23.6402 25.146 23.9632 25.9595 23.9619L25.9595 23.9618ZM24.9875 19.8987C25.2515 19.6344 25.6098 19.4855 25.9834 19.4852C26.3571 19.4852 26.7154 19.6335 26.9797 19.8975C27.2439 20.1618 27.3925 20.5202 27.3925 20.8938C27.3925 21.2674 27.244 21.6257 26.9797 21.8897C26.7154 22.154 26.357 22.3023 25.9834 22.302C25.6098 22.3017 25.2515 22.1532 24.9875 21.8886C24.7229 21.6251 24.5741 21.2671 24.5741 20.8937C24.5741 20.5201 24.7229 20.1621 24.9875 19.8986V19.8987Z" fill="white"/>
<path d="M20.1851 28.4116C20.1851 28.8703 20.557 29.2423 21.0161 29.2423C21.4748 29.2423 21.8468 28.8703 21.8468 28.4116V13.3763C21.8468 12.9173 21.4748 12.5453 21.0161 12.5453C20.557 12.5453 20.1851 12.9173 20.1851 13.3763V28.4116Z" fill="white"/>
</svg>
