<svg width="34" height="41" viewBox="0 0 34 41" fill="none" xmlns="http://www.w3.org/2000/svg">
<path d="M24.8775 34.7603C24.5062 34.7603 24.2056 35.061 24.2056 35.4322C24.2056 35.8035 24.5079 36.1041 24.8775 36.1041H30.1225C30.4937 36.1041 30.7944 35.8035 30.7944 35.4322C30.7944 35.061 30.492 34.7603 30.1225 34.7603H24.8775Z" fill="white"/>
<path d="M31.297 25.5005C29.5817 23.6055 27.2096 22.6647 24.3485 22.6981L22.1714 19.7481L22.3528 19.4927C23.3878 18.0243 23.9772 16.7829 24.2579 16.1076C24.4478 16.0924 24.6025 16.0337 24.7183 15.9664C25.246 15.6692 25.3416 15.0591 25.3568 14.9382C25.3601 14.9078 25.6844 12.0335 25.8456 11.1028C25.9463 10.5215 25.6321 10.0344 25.2341 9.70503C26.2388 3.92767 24.3606 2.50626 22.1615 1.482C20.6512 0.776347 18.1262 0.63039 17.1098 0.600006C17.0712 0.601694 17.0392 0.616881 17.0023 0.62363C16.9787 0.620256 16.9688 0.601693 16.9435 0.600006C15.9288 0.630381 13.4038 0.776347 11.8918 1.482C9.69552 2.50683 7.81734 3.92659 8.82368 9.70431C8.42402 10.0353 8.11156 10.5208 8.21056 11.1021C8.37172 12.0344 8.69599 14.9091 8.69937 14.9408C8.71456 15.0601 8.80849 15.6682 9.3378 15.9657C9.45368 16.0329 9.60836 16.0917 9.7982 16.1068C10.0789 16.7821 10.6684 18.0255 11.705 19.4936L11.8847 19.7473L9.70591 22.699C6.81809 22.6655 4.4761 23.6046 2.76079 25.4996C1.34305 27.067 0.560059 29.2107 0.560059 31.5357V38.9761C0.560059 39.749 1.19005 40.379 1.96462 40.379H16.9649L17.0285 40.3787C17.0369 40.3787 17.0454 40.3719 17.0555 40.3719C17.0673 40.3719 17.0791 40.3787 17.0907 40.3787H32.091C32.8655 40.3787 33.4955 39.7487 33.4955 38.9758V31.5354C33.4955 29.2123 32.7125 27.0687 31.2965 25.501L31.297 25.5005ZM10.5022 23.8879C10.5694 23.8291 10.6248 23.7585 10.6599 23.6744L12.7262 20.8771C12.7516 20.9089 12.7816 20.9409 12.8086 20.9727C12.9664 21.1676 13.1312 21.3591 13.3059 21.5507C13.3427 21.5909 13.3799 21.6314 13.4184 21.6716C14.1072 22.4074 14.9135 23.0592 15.8157 23.3835L14.6598 33.6297C14.6497 33.7155 14.6564 33.8044 14.6817 33.8868L15.4647 36.6706L11.5858 31.8154L7.98214 27.3048L10.5022 23.8879ZM17.0287 37.2804L16.0072 33.6501L17.0287 24.6034L18.0503 33.6501L17.0287 37.2804ZM22.4753 31.8138L18.5964 36.669L19.3794 33.8852C19.4047 33.8011 19.4112 33.714 19.4013 33.6282L18.2454 23.3935C18.3176 23.3682 18.3882 23.3381 18.4588 23.3077C18.5412 23.2726 18.6217 23.2321 18.7041 23.1918C18.8385 23.1246 18.9696 23.054 19.0973 22.9733C19.1763 22.9246 19.255 22.876 19.3324 22.822C19.4601 22.7328 19.5844 22.6389 19.7087 22.5413C19.7776 22.4859 19.8482 22.4339 19.9154 22.3751C20.0532 22.2575 20.1843 22.1332 20.3153 22.0055C20.3623 21.9603 20.411 21.9181 20.4565 21.8711C20.6244 21.7015 20.7842 21.5249 20.9386 21.3485C21.0092 21.2661 21.0747 21.1857 21.1419 21.1033C21.2058 21.026 21.273 20.9503 21.3335 20.8732L23.4602 23.7544C23.4602 23.7544 23.4602 23.756 23.4619 23.756L26.0809 27.2992L22.4753 31.8138ZM12.4624 2.69805C13.3528 2.28152 15.0445 1.99915 16.9848 1.94206C17 1.94206 17.0135 1.93362 17.0284 1.93193C17.0436 1.93362 17.0571 1.94206 17.072 1.94206C19.0123 1.99915 20.704 2.28152 21.5944 2.69805C23.0912 3.39695 24.6352 4.11751 24.0353 8.63683C24.0269 8.61321 24.0202 8.59155 24.0117 8.56624C23.9513 8.38315 23.8857 8.18318 23.8134 7.94469C23.7831 7.84569 23.7547 7.71969 23.7178 7.57513C23.4962 6.67118 23.1618 5.30715 22.1201 4.87206C21.5793 4.64538 20.9641 4.7275 20.3074 5.119C19.4491 5.63481 18.409 6.15874 17.1743 6.15874H17.0902C17.0666 6.15874 17.0483 6.16886 17.0247 6.17224C16.9994 6.17055 16.9794 6.15874 16.9524 6.15874C15.6654 6.15874 14.6223 5.64631 13.747 5.12037C13.0909 4.72577 12.4792 4.64365 11.9349 4.87203C10.8935 5.30712 10.5591 6.67114 10.3372 7.57509C10.302 7.71965 10.2717 7.84565 10.2416 7.94297C10.1575 8.22702 10.0835 8.44528 10.0129 8.65199C9.39811 4.12958 10.9537 3.40195 12.4623 2.69802L12.4624 2.69805ZM10.87 15.1489C10.8095 14.9675 10.6416 14.8313 10.4667 14.754C10.3373 14.6952 10.1728 14.6885 10.0265 14.7205C9.97957 14.2956 9.72251 12.0577 9.56277 11.075C9.63673 11.0967 9.70564 11.1068 9.76273 11.1102H9.81307C9.85329 11.1102 9.88873 11.0983 9.92726 11.0933C10.5859 11.0142 10.9338 10.3055 11.5284 8.33146C11.5635 8.21559 11.6007 8.06596 11.6426 7.89469C11.7601 7.41263 12.0357 6.28536 12.4506 6.11213C12.6151 6.04154 12.8705 6.1591 13.0536 6.26991C14.0298 6.858 15.3584 7.51305 16.9747 7.49951C16.9933 7.49951 17.0082 7.48939 17.0268 7.4877C17.0453 7.48939 17.0602 7.49951 17.0788 7.49951C18.7236 7.54648 20.0237 6.85602 21 6.26991C21.1831 6.15909 21.4401 6.04153 21.603 6.11213C22.0178 6.28509 22.2934 7.41236 22.411 7.89469C22.4529 8.06596 22.49 8.21559 22.5252 8.33146C23.0863 10.1961 23.4879 10.9423 24.0388 11.0798C24.0557 11.0849 24.0723 11.0832 24.0892 11.0866C24.1395 11.095 24.1882 11.1085 24.2405 11.1085H24.2891C24.3462 11.1051 24.4135 11.0967 24.484 11.075C24.331 12.0628 24.0909 14.1459 24.0152 14.7104C23.8605 14.6635 23.696 14.6753 23.5531 14.7408C23.3785 14.8181 23.244 14.9658 23.1836 15.1475C23.1785 15.1627 22.661 16.7199 21.2533 18.7173L20.7963 19.3608C19.3951 21.286 18.1487 22.2656 17.0886 22.2656C17.0667 22.2656 17.0501 22.2757 17.0282 22.2774C17.0062 22.2757 16.9863 22.2656 16.966 22.2656C16.7005 22.2656 16.4252 22.2034 16.1361 22.0825C15.2727 21.7163 14.3082 20.8056 13.2601 19.3608L12.803 18.7173C11.3923 16.7197 10.8751 15.164 10.87 15.1489L10.87 15.1489ZM1.90754 38.9777V31.5373C1.90754 29.5467 2.56622 27.7239 3.76066 26.4032C4.99868 25.034 6.65697 24.2916 8.66784 24.1098L6.59138 26.9221C6.58463 26.9322 6.588 26.944 6.58125 26.9538C6.51066 27.0596 6.47382 27.1788 6.47044 27.3048C6.47044 27.3301 6.47381 27.3518 6.4755 27.3754C6.48563 27.5048 6.52078 27.6325 6.60825 27.7399L15.6283 39.0294L1.90754 38.9777ZM32.0918 39.0365H18.427L27.45 27.7406C27.5375 27.6314 27.5709 27.5054 27.5827 27.3761C27.5844 27.3508 27.5895 27.3291 27.5878 27.3055C27.5844 27.1795 27.5476 27.0619 27.477 26.9545C27.4702 26.9444 27.4736 26.9325 27.4669 26.9227L25.3887 24.1088C27.3946 24.2885 29.0613 25.0361 30.2977 26.4038C31.4921 27.7243 32.1508 29.547 32.1508 31.538L32.0918 39.0365Z" fill="white"/>
</svg>
