<svg width="48" height="36" viewBox="0 0 48 36" fill="none" xmlns="http://www.w3.org/2000/svg">
<path d="M46.2874 4.96957H34.7635V1.12826C34.7635 0.704006 34.4195 0.360001 33.9952 0.360001H21.703C21.2788 0.360001 20.9348 0.704006 20.9348 1.12826V4.96957H9.41087C8.98661 4.96957 8.64261 5.31357 8.64261 5.73783V11.0971L1.8949 9.59766C1.66752 9.54587 1.42949 9.60212 1.24737 9.74857C1.06559 9.89399 0.959961 10.1145 0.959961 10.3474V34.9318C0.959961 35.356 1.30397 35.7 1.72822 35.7H40.1413C42.2591 35.7 43.9826 33.9766 43.9826 31.8587V20.6825C45.883 19.4131 47.0556 17.2678 47.0556 14.9569V5.73775C47.0556 5.31349 46.7116 4.96949 46.2874 4.96949L46.2874 4.96957ZM22.4713 1.89652H33.227V4.96957H22.4713V1.89652ZM2.49652 11.3044L14.7887 14.0362V34.1629H2.49652V11.3044ZM16.3252 20.3348H24.0078V34.1635H16.3252V20.3348ZM42.4461 31.8587C42.4461 33.1298 41.4124 34.1635 40.1413 34.1635H25.5443V21.8713H40.1413C40.414 21.8713 40.6839 21.8497 40.9524 21.8178C41.0162 21.8103 41.0793 21.8027 41.1428 21.7935C41.4045 21.7554 41.6638 21.706 41.9183 21.6384C41.9525 21.6292 41.9855 21.6168 42.0194 21.6072C42.1624 21.5668 42.3058 21.5259 42.4461 21.4759V31.8587ZM45.5191 14.957C45.5191 16.8749 44.4895 18.657 42.8241 19.6115C42.0219 20.0844 41.0941 20.3348 40.1413 20.3348H25.5443V19.5666C25.5443 19.1423 25.2003 18.7983 24.7761 18.7983H16.3252V13.4205C16.3252 13.0603 16.0755 12.7486 15.724 12.6707L10.1792 11.4367V6.50611H45.5192L45.5191 14.957Z" fill="white"/>
<path d="M21.7031 11.8839C21.2788 11.8839 20.9348 12.2279 20.9348 12.6522V15.7252C20.9348 16.1495 21.2788 16.4935 21.7031 16.4935H33.9952C34.4195 16.4935 34.7635 16.1495 34.7635 15.7252V12.6522C34.7635 12.2279 34.4195 11.8839 33.9952 11.8839H21.7031ZM33.227 14.957H22.4713V13.4204H33.227V14.957Z" fill="white"/>
<path d="M18.6298 21.103C18.2056 21.103 17.8616 21.447 17.8616 21.8713V23.4078C17.8616 23.8321 18.2056 24.1761 18.6298 24.1761C19.0541 24.1761 19.3981 23.8321 19.3981 23.4078V21.8713C19.3981 21.447 19.0541 21.103 18.6298 21.103Z" fill="white"/>
<path d="M21.7031 21.103C21.2788 21.103 20.9348 21.447 20.9348 21.8713V23.4078C20.9348 23.8321 21.2788 24.1761 21.7031 24.1761C22.1273 24.1761 22.4713 23.8321 22.4713 23.4078V21.8713C22.4713 21.447 22.1273 21.103 21.7031 21.103Z" fill="white"/>
<path d="M18.6298 25.7126C18.2056 25.7126 17.8616 26.0566 17.8616 26.4808V28.0174C17.8616 28.4416 18.2056 28.7856 18.6298 28.7856C19.0541 28.7856 19.3981 28.4416 19.3981 28.0174V26.4808C19.3981 26.0566 19.0541 25.7126 18.6298 25.7126Z" fill="white"/>
<path d="M21.7031 25.7126C21.2788 25.7126 20.9348 26.0566 20.9348 26.4808V28.0174C20.9348 28.4416 21.2788 28.7856 21.7031 28.7856C22.1273 28.7856 22.4713 28.4416 22.4713 28.0174V26.4808C22.4713 26.0566 22.1273 25.7126 21.7031 25.7126Z" fill="white"/>
<path d="M18.6298 30.3222C18.2056 30.3222 17.8616 30.6662 17.8616 31.0905V32.627C17.8616 33.0512 18.2056 33.3952 18.6298 33.3952C19.0541 33.3952 19.3981 33.0512 19.3981 32.627V31.0905C19.3981 30.6662 19.0541 30.3222 18.6298 30.3222Z" fill="white"/>
<path d="M21.7031 30.3222C21.2788 30.3222 20.9348 30.6662 20.9348 31.0905V32.627C20.9348 33.0512 21.2788 33.3952 21.7031 33.3952C22.1273 33.3952 22.4713 33.0512 22.4713 32.627V31.0905C22.4713 30.6662 22.1273 30.3222 21.7031 30.3222Z" fill="white"/>
<path d="M12.4838 15.7252H4.80122C4.37696 15.7252 4.03296 16.0692 4.03296 16.4935C4.03296 16.9178 4.37696 17.2618 4.80122 17.2618H12.4838C12.9081 17.2618 13.2521 16.9178 13.2521 16.4935C13.2521 16.0692 12.9081 15.7252 12.4838 15.7252Z" fill="white"/>
<path d="M12.4838 20.3348H4.80122C4.37696 20.3348 4.03296 20.6788 4.03296 21.103C4.03296 21.5273 4.37696 21.8713 4.80122 21.8713H12.4838C12.9081 21.8713 13.2521 21.5273 13.2521 21.103C13.2521 20.6788 12.9081 20.3348 12.4838 20.3348Z" fill="white"/>
<path d="M12.4838 24.9444H4.80122C4.37696 24.9444 4.03296 25.2884 4.03296 25.7126C4.03296 26.1369 4.37696 26.4809 4.80122 26.4809H12.4838C12.9081 26.4809 13.2521 26.1369 13.2521 25.7126C13.2521 25.2884 12.9081 24.9444 12.4838 24.9444Z" fill="white"/>
<path d="M12.4838 29.5539H4.80122C4.37696 29.5539 4.03296 29.8979 4.03296 30.3222C4.03296 30.7464 4.37696 31.0904 4.80122 31.0904H12.4838C12.9081 31.0904 13.2521 30.7464 13.2521 30.3222C13.2521 29.8979 12.9081 29.5539 12.4838 29.5539Z" fill="white"/>
</svg>
