<svg width="192" height="188" viewBox="0 0 192 188" fill="none" xmlns="http://www.w3.org/2000/svg">
<g clip-path="url(#clip0_45_571)">
<path d="M52.4081 98.46L66.3123 106.436L44.6156 67.3513L0 68.1763L13.7208 75.9382L1.43626 97.421C0.611173 98.8572 0 101.119 0 102.952C0 104.786 0.611173 106.833 1.43626 108.269L27.0138 152.274C26.7999 150.837 26.7999 149.829 26.7999 149.004C26.7999 145.52 28.4195 139.989 30.467 136.322L52.4081 98.46Z" fill="#E46053"/>
<path d="M41.743 126.482L35.2034 138.156C33.156 141.639 31.7197 147.17 31.7197 150.44C31.7197 162.114 41.3457 171.709 52.9885 171.709H90.2395V126.482H41.743Z" fill="#E46053"/>
<path d="M68.1457 1.83351C60.3838 1.83351 54.0276 5.53111 50.1466 12.2846L31.5059 44.4017L70.5904 67.1373L94.7623 25.3637L87.7949 13.6903C83.0889 5.74502 76.5493 1.83351 68.1457 1.83351Z" fill="#FF9A00"/>
<path d="M152.701 26.6166L140.203 5.34776C138.155 1.83352 134.672 0 130.18 0H79.8188C84.7388 2.04743 88.8337 5.74503 91.8895 11.0622L113.8 49.1383L100.079 56.9002L144.481 57.5114L166.178 18.6102L152.701 26.6166Z" fill="#FF9A00"/>
<path d="M169.478 126.91H125.657V110.928L102.738 149.218L125.657 187.477V171.709H149.615C153.924 171.709 157.591 169.662 159.638 166.178L185.033 121.99C180.724 125.26 175.621 126.91 169.478 126.91Z" fill="black"/>
<path d="M189.097 90.0563L170.487 57.9086L131.402 80.2165L155.544 121.99H169.051C173.329 121.99 177.638 120.951 180.724 119.301C187.264 115.634 191.97 107.841 191.97 100.477C192 96.8098 190.961 93.3261 189.097 90.0563Z" fill="black"/>
</g>
<defs>
<clipPath id="clip0_45_571">
<rect width="192" height="187.477" fill="white"/>
</clipPath>
</defs>
</svg>
