<svg width="128" height="128" viewBox="0 0 128 128" fill="none" xmlns="http://www.w3.org/2000/svg">
<path fill-rule="evenodd" clip-rule="evenodd" d="M20.3364 98.4776C36.4417 98.4776 39.4766 84.4188 39.4766 73.1628C41.3895 73.1628 56.5066 73.1628 63.4019 73.1628C100.908 73.1628 100.918 20.48 64.5981 20.48C54.7194 20.48 48.3565 26.4257 46.653 28.4969C26.3883 28.4969 23.9252 39.0091 23.9252 59.4206C23.9252 63.3584 23.9252 76.1588 23.9252 78.1305C23.9252 82.9298 21.9825 86.0435 16.7465 86.0435C12.276 86.0435 10.1587 82.1136 8.37264 76.5986C7.44195 77.0949 0.906761 80.6042 -5.28646e-06 81.1797C1.97742 86.689 4.0948 98.4776 20.3364 98.4776ZM43.1061 51.4025C49.2417 51.4025 49.7633 60.5647 42.6718 60.5647C36.6941 60.5647 36.8496 51.4025 43.1061 51.4025ZM64.5993 78.8586C59.4135 78.8586 44.2617 77.7439 44.2617 77.7439V105.99L58.6168 106.194L62.2056 85.7608L107.664 84.9129L108.861 107.315L125.609 107.52C125.609 107.52 128 63.641 128 54.8383C128 38.5105 120.642 29.2691 104.075 28.4969C99.9237 28.3036 94.4927 27.5348 90.9159 27.3516C106.507 46.186 94.1015 78.8586 64.5993 78.8586ZM93.3096 90.3114L94.5047 106.908L104.075 107.113L102.879 90.3114H93.3096V90.3114ZM63.4019 106.4L72.972 106.603L75.3633 90.3114H66.9895L63.4019 106.4Z" fill="#FF862F"/>
</svg>
